<svg width="974" height="664" viewBox="0 0 974 664" fill="none" xmlns="http://www.w3.org/2000/svg">
<g filter="url(#filter0_dd_6_42)">
<rect width="542.587" height="542.587" rx="64" transform="matrix(0.962455 0.27144 -0.707107 0.707107 417.677 34.4939)" fill="white" shape-rendering="crispEdges"/>
<rect width="542.587" height="542.587" rx="64" transform="matrix(0.962455 0.27144 -0.707107 0.707107 417.677 34.4939)" fill="url(#paint0_linear_6_42)" fill-opacity="0.12" shape-rendering="crispEdges"/>
<rect x="0.255349" y="0.978547" width="540.587" height="540.587" rx="63" transform="matrix(0.962455 0.27144 -0.707107 0.707107 418.379 34.7112)" stroke="white" stroke-width="2" shape-rendering="crispEdges"/>
<g clip-path="url(#clip0_6_42)">
<path fill-rule="evenodd" clip-rule="evenodd" d="M428.608 421.568C426.204 420.889 425.687 418.908 427.453 417.141C429.22 415.375 432.601 414.492 435.005 415.17C437.41 415.849 437.927 417.83 436.16 419.597C434.394 421.363 431.013 422.246 428.608 421.568ZM436.279 404.595C433.874 403.916 433.357 401.935 435.124 400.168C436.89 398.402 440.271 397.519 442.676 398.197C445.08 398.876 445.597 400.857 443.831 402.624C442.064 404.39 438.683 405.273 436.279 404.595ZM473.166 396.545C470.361 395.754 469.757 393.442 471.818 391.381C473.879 389.32 477.824 388.291 480.629 389.082C483.434 389.873 484.038 392.185 481.977 394.246C479.916 396.307 475.971 397.336 473.166 396.545ZM540.373 387.478C531.556 384.992 529.66 377.725 536.137 371.248C542.615 364.771 555.012 361.536 563.829 364.022C572.645 366.509 574.541 373.775 568.064 380.252C561.587 386.73 549.189 389.965 540.373 387.478ZM495.808 400.88C488.995 398.959 487.53 393.344 492.535 388.339C497.54 383.334 507.12 380.834 513.933 382.755C520.745 384.676 522.21 390.291 517.205 395.297C512.2 400.302 502.62 402.802 495.808 400.88ZM452.331 414.589C448.323 413.459 447.462 410.156 450.406 407.212C453.35 404.268 458.985 402.797 462.993 403.927C467 405.058 467.862 408.361 464.918 411.305C461.974 414.249 456.338 415.719 452.331 414.589ZM448.821 398.564C445.215 397.547 444.439 394.574 447.089 391.924C449.738 389.274 454.81 387.951 458.417 388.968C462.024 389.985 462.799 392.958 460.149 395.608C457.5 398.258 452.428 399.581 448.821 398.564ZM428.208 396.851C425.403 396.06 424.8 393.748 426.861 391.687C428.922 389.626 432.866 388.597 435.672 389.388C438.477 390.179 439.08 392.491 437.019 394.552C434.958 396.613 431.013 397.642 428.208 396.851ZM406.87 394.934C402.862 393.803 402 390.5 404.945 387.556C407.889 384.612 413.524 383.141 417.532 384.272C421.539 385.402 422.401 388.705 419.457 391.649C416.512 394.593 410.877 396.064 406.87 394.934ZM356.914 387.679C350.302 385.814 348.88 380.364 353.738 375.506C358.596 370.649 367.894 368.222 374.506 370.087C381.119 371.952 382.541 377.402 377.683 382.26C372.825 387.117 363.526 389.544 356.914 387.679ZM340.707 368.072C335.297 366.547 334.133 362.088 338.108 358.113C342.082 354.138 349.69 352.153 355.1 353.679C360.51 355.205 361.674 359.664 357.699 363.638C353.724 367.613 346.117 369.598 340.707 368.072ZM315.466 337.033C307.451 334.773 305.727 328.167 311.616 322.279C317.504 316.39 328.775 313.449 336.79 315.71C344.804 317.97 346.528 324.576 340.64 330.464C334.752 336.353 323.481 339.294 315.466 337.033ZM327.994 307.761C321.782 306.01 320.446 300.89 325.01 296.327C329.573 291.763 338.308 289.484 344.52 291.236C350.731 292.987 352.067 298.107 347.503 302.67C342.94 307.234 334.205 309.513 327.994 307.761ZM300.495 315.725C296.087 314.482 295.139 310.849 298.377 307.61C301.616 304.371 307.815 302.754 312.223 303.997C316.631 305.24 317.579 308.874 314.341 312.112C311.102 315.351 304.903 316.968 300.495 315.725ZM310.002 300.637C306.996 299.789 306.35 297.312 308.558 295.104C310.766 292.896 314.993 291.793 317.998 292.64C321.004 293.488 321.65 295.965 319.442 298.173C317.234 300.382 313.007 301.484 310.002 300.637ZM275.099 308.563C271.893 307.658 271.203 305.016 273.559 302.661C275.914 300.305 280.422 299.129 283.628 300.033C286.834 300.937 287.524 303.58 285.168 305.935C282.813 308.29 278.305 309.467 275.099 308.563ZM265.947 312.133C264.144 311.624 263.756 310.138 265.081 308.813C266.406 307.488 268.942 306.826 270.745 307.335C272.549 307.843 272.936 309.33 271.612 310.655C270.287 311.979 267.751 312.641 265.947 312.133ZM253.035 306.441C251.832 306.101 251.574 305.111 252.457 304.227C253.34 303.344 255.031 302.903 256.233 303.242C257.435 303.581 257.694 304.572 256.811 305.455C255.928 306.338 254.237 306.78 253.035 306.441ZM333.48 278.554C332.478 278.271 332.263 277.446 332.999 276.71C333.735 275.974 335.144 275.606 336.145 275.888C337.147 276.171 337.363 276.997 336.627 277.733C335.891 278.469 334.482 278.836 333.48 278.554ZM337.878 249.039C336.275 248.587 335.93 247.266 337.108 246.089C338.286 244.911 340.54 244.323 342.143 244.775C343.746 245.227 344.09 246.548 342.913 247.726C341.735 248.903 339.481 249.492 337.878 249.039ZM330.918 242.976C328.514 242.298 327.996 240.316 329.763 238.55C331.529 236.783 334.911 235.901 337.315 236.579C339.72 237.257 340.237 239.239 338.47 241.005C336.704 242.772 333.322 243.654 330.918 242.976ZM348.355 282.749C344.347 281.619 343.486 278.316 346.43 275.372C349.374 272.428 355.009 270.957 359.017 272.087C363.024 273.217 363.886 276.52 360.942 279.465C357.998 282.409 352.362 283.879 348.355 282.749ZM340.195 269.513C336.589 268.496 335.813 265.523 338.463 262.873C341.113 260.223 346.184 258.9 349.791 259.917C353.398 260.934 354.173 263.907 351.524 266.557C348.874 269.207 343.802 270.53 340.195 269.513ZM364.688 265.485C361.081 264.468 360.306 261.496 362.956 258.846C365.605 256.196 370.677 254.873 374.284 255.89C377.89 256.907 378.666 259.88 376.016 262.529C373.367 265.179 368.295 266.503 364.688 265.485ZM353.671 254.177C350.465 253.273 349.775 250.63 352.131 248.275C354.486 245.92 358.994 244.743 362.2 245.648C365.406 246.552 366.096 249.194 363.74 251.549C361.385 253.905 356.877 255.081 353.671 254.177ZM379.059 249.719C371.045 247.458 369.321 240.853 375.209 234.964C381.098 229.076 392.368 226.135 400.383 228.395C408.398 230.656 410.122 237.261 404.233 243.15C398.345 249.038 387.074 251.979 379.059 249.719ZM348.051 241.657C342.441 240.075 341.234 235.451 345.356 231.329C349.478 227.207 357.367 225.148 362.978 226.73C368.588 228.313 369.795 232.937 365.673 237.059C361.551 241.181 353.661 243.239 348.051 241.657ZM370.915 226.235C366.106 224.879 365.072 220.915 368.605 217.382C372.138 213.849 378.9 212.085 383.709 213.441C388.518 214.797 389.552 218.761 386.019 222.294C382.486 225.827 375.724 227.591 370.915 226.235ZM423.662 227.442C418.853 226.086 417.818 222.123 421.351 218.59C424.884 215.057 431.647 213.292 436.456 214.648C441.265 216.005 442.299 219.968 438.766 223.501C435.233 227.034 428.47 228.799 423.662 227.442ZM461.763 216.318C455.752 214.623 454.459 209.668 458.875 205.252C463.292 200.836 471.745 198.63 477.756 200.325C483.767 202.021 485.06 206.975 480.643 211.391C476.227 215.808 467.774 218.013 461.763 216.318ZM495.259 210.729C490.851 209.486 489.903 205.853 493.141 202.614C496.38 199.376 502.579 197.758 506.987 199.001C511.395 200.245 512.343 203.878 509.105 207.116C505.866 210.355 499.667 211.973 495.259 210.729ZM519.574 195.717C516.769 194.926 516.165 192.614 518.226 190.553C520.287 188.492 524.232 187.462 527.037 188.253C529.842 189.045 530.446 191.357 528.385 193.418C526.324 195.479 522.379 196.508 519.574 195.717ZM555.676 194.964C552.871 194.173 552.268 191.86 554.329 189.8C556.39 187.739 560.334 186.709 563.14 187.5C565.945 188.291 566.548 190.604 564.487 192.664C562.426 194.725 558.481 195.755 555.676 194.964ZM553.425 212.098C549.017 210.855 548.069 207.222 551.308 203.983C554.546 200.745 560.745 199.127 565.153 200.37C569.562 201.613 570.51 205.247 567.271 208.485C564.032 211.724 557.834 213.342 553.425 212.098ZM576.719 200.898C571.108 199.316 569.902 194.692 574.024 190.57C578.145 186.448 586.035 184.389 591.645 185.972C597.256 187.554 598.462 192.178 594.34 196.3C590.219 200.422 582.329 202.481 576.719 200.898ZM576.215 214.425C572.609 213.408 571.833 210.435 574.483 207.785C577.132 205.136 582.204 203.812 585.811 204.829C589.418 205.847 590.193 208.819 587.543 211.469C584.894 214.119 579.822 215.442 576.215 214.425ZM600.975 226.875C592.96 224.615 591.236 218.009 597.124 212.121C603.013 206.232 614.283 203.291 622.298 205.552C630.313 207.812 632.037 214.418 626.148 220.306C620.26 226.195 608.989 229.136 600.975 226.875ZM639.061 225.998C634.052 224.586 632.975 220.457 636.655 216.777C640.335 213.097 647.379 211.258 652.388 212.671C657.398 214.084 658.475 218.213 654.795 221.893C651.115 225.573 644.07 227.411 639.061 225.998ZM624.564 245.147C619.154 243.621 617.991 239.162 621.965 235.187C625.94 231.213 633.548 229.228 638.958 230.753C644.367 232.279 645.531 236.738 641.556 240.713C637.582 244.687 629.974 246.673 624.564 245.147ZM638.439 288.016C633.029 286.49 631.866 282.031 635.841 278.057C639.815 274.082 647.423 272.097 652.833 273.623C658.243 275.148 659.406 279.607 655.432 283.582C651.457 287.557 643.849 289.542 638.439 288.016ZM636.529 270.391C632.922 269.374 632.147 266.402 634.797 263.752C637.446 261.102 642.518 259.779 646.125 260.796C649.731 261.813 650.507 264.786 647.857 267.435C645.208 270.085 640.136 271.409 636.529 270.391ZM664.502 269.396C660.895 268.379 660.119 265.406 662.769 262.756C665.419 260.106 670.491 258.783 674.097 259.8C677.704 260.817 678.48 263.79 675.83 266.44C673.18 269.089 668.108 270.413 664.502 269.396ZM635.774 257.193C632.568 256.289 631.878 253.647 634.234 251.291C636.589 248.936 641.097 247.759 644.303 248.664C647.509 249.568 648.199 252.21 645.843 254.565C643.488 256.921 638.98 258.097 635.774 257.193ZM685.84 271.313C683.436 270.635 682.919 268.653 684.685 266.887C686.452 265.12 689.833 264.238 692.237 264.916C694.642 265.594 695.159 267.576 693.392 269.343C691.626 271.109 688.245 271.991 685.84 271.313ZM653.958 231.567C651.554 230.889 651.037 228.907 652.803 227.14C654.57 225.374 657.951 224.492 660.355 225.17C662.76 225.848 663.277 227.83 661.51 229.596C659.744 231.363 656.363 232.245 653.958 231.567ZM657.083 212.628C654.277 211.837 653.674 209.525 655.735 207.464C657.796 205.403 661.741 204.374 664.546 205.165C667.351 205.956 667.954 208.268 665.893 210.329C663.833 212.39 659.888 213.419 657.083 212.628ZM716.878 225.392C713.271 224.374 712.496 221.402 715.145 218.752C717.795 216.102 722.867 214.779 726.474 215.796C730.08 216.813 730.856 219.786 728.206 222.436C725.557 225.085 720.485 226.409 716.878 225.392ZM691.956 191.709C689.351 190.974 688.791 188.827 690.704 186.913C692.618 185 696.281 184.044 698.886 184.778C701.491 185.513 702.051 187.66 700.137 189.574C698.224 191.487 694.561 192.443 691.956 191.709ZM659.926 254.436C658.323 253.984 657.978 252.663 659.156 251.486C660.334 250.308 662.588 249.72 664.191 250.172C665.794 250.624 666.138 251.945 664.961 253.123C663.783 254.3 661.529 254.889 659.926 254.436ZM667.286 285.217C663.278 284.086 662.416 280.783 665.361 277.839C668.305 274.895 673.94 273.425 677.948 274.555C681.955 275.685 682.817 278.988 679.873 281.932C676.928 284.876 671.293 286.347 667.286 285.217ZM683.678 293.94C680.072 292.923 679.296 289.951 681.946 287.301C684.596 284.651 689.667 283.328 693.274 284.345C696.881 285.362 697.656 288.335 695.007 290.984C692.357 293.634 687.285 294.958 683.678 293.94ZM672.173 319.4C669.367 318.609 668.764 316.297 670.825 314.236C672.886 312.175 676.831 311.146 679.636 311.937C682.441 312.728 683.044 315.04 680.983 317.101C678.922 319.162 674.978 320.191 672.173 319.4ZM614.48 324.999C610.873 323.982 610.098 321.009 612.747 318.359C615.397 315.71 620.469 314.386 624.076 315.403C627.682 316.421 628.458 319.393 625.808 322.043C623.158 324.693 618.087 326.016 614.48 324.999ZM629.17 340.077C625.563 339.06 624.787 336.087 627.437 333.437C630.087 330.788 635.159 329.464 638.765 330.481C642.372 331.499 643.148 334.471 640.498 337.121C637.848 339.771 632.776 341.094 629.17 340.077ZM598.872 342.467C594.664 341.281 593.759 337.812 596.851 334.721C599.942 331.63 605.859 330.086 610.067 331.272C614.275 332.459 615.18 335.927 612.088 339.018C608.997 342.11 603.08 343.654 598.872 342.467ZM614.88 349.716C611.874 348.868 611.228 346.391 613.436 344.183C615.644 341.974 619.871 340.872 622.876 341.719C625.882 342.567 626.528 345.044 624.32 347.252C622.112 349.46 617.885 350.563 614.88 349.716ZM574.987 361.702C568.976 360.006 567.683 355.052 572.099 350.636C576.515 346.219 584.968 344.013 590.979 345.709C596.991 347.404 598.283 352.358 593.867 356.775C589.451 361.191 580.998 363.397 574.987 361.702ZM600.309 386.613C596.702 385.595 595.926 382.623 598.576 379.973C601.226 377.323 606.298 376 609.904 377.017C613.511 378.034 614.287 381.007 611.637 383.656C608.987 386.306 603.915 387.63 600.309 386.613ZM605.625 358.04C603.22 357.362 602.703 355.381 604.47 353.614C606.236 351.848 609.617 350.965 612.022 351.643C614.426 352.321 614.943 354.303 613.177 356.07C611.41 357.836 608.029 358.719 605.625 358.04ZM624.194 367.378C622.591 366.926 622.247 365.605 623.424 364.427C624.602 363.25 626.856 362.661 628.459 363.113C630.062 363.566 630.407 364.887 629.229 366.064C628.051 367.242 625.797 367.83 624.194 367.378ZM632.398 349.872C630.795 349.42 630.45 348.099 631.628 346.921C632.806 345.744 635.06 345.155 636.663 345.607C638.266 346.059 638.61 347.381 637.433 348.558C636.255 349.736 634.001 350.324 632.398 349.872ZM583.915 176.957C580.309 175.94 579.533 172.967 582.183 170.318C584.833 167.668 589.904 166.344 593.511 167.362C597.118 168.379 597.893 171.351 595.244 174.001C592.594 176.651 587.522 177.974 583.915 176.957ZM569.581 183.85C567.978 183.397 567.633 182.076 568.811 180.899C569.989 179.721 572.243 179.133 573.846 179.585C575.449 180.037 575.794 181.358 574.616 182.536C573.438 183.713 571.184 184.302 569.581 183.85ZM598.057 202.816C596.454 202.364 596.11 201.042 597.287 199.865C598.465 198.687 600.719 198.099 602.322 198.551C603.925 199.003 604.27 200.324 603.092 201.502C601.914 202.68 599.66 203.268 598.057 202.816ZM620.758 199.65C617.152 198.633 616.376 195.66 619.026 193.01C621.675 190.36 626.747 189.037 630.354 190.054C633.96 191.071 634.736 194.044 632.086 196.694C629.437 199.344 624.365 200.667 620.758 199.65ZM402.915 217.491C399.309 216.474 398.533 213.501 401.183 210.851C403.832 208.201 408.904 206.878 412.511 207.895C416.118 208.912 416.893 211.885 414.243 214.535C411.594 217.185 406.522 218.508 402.915 217.491ZM446.214 192.797C443.81 192.119 443.293 190.137 445.059 188.37C446.826 186.604 450.207 185.721 452.611 186.4C455.016 187.078 455.533 189.059 453.766 190.826C452 192.592 448.619 193.475 446.214 192.797ZM473.313 193.605C471.71 193.153 471.365 191.832 472.543 190.654C473.721 189.476 475.975 188.888 477.578 189.34C479.181 189.792 479.526 191.113 478.348 192.291C477.17 193.469 474.916 194.057 473.313 193.605ZM486.374 197.288C483.97 196.61 483.452 194.629 485.219 192.862C486.985 191.096 490.367 190.213 492.771 190.891C495.176 191.569 495.693 193.551 493.926 195.318C492.16 197.084 488.778 197.967 486.374 197.288ZM443.963 209.931C442.761 209.592 442.503 208.601 443.386 207.718C444.269 206.835 445.96 206.394 447.162 206.733C448.364 207.072 448.623 208.063 447.74 208.946C446.856 209.829 445.166 210.27 443.963 209.931ZM425.527 208.832C423.924 208.38 423.58 207.059 424.757 205.881C425.935 204.704 428.189 204.116 429.792 204.568C431.395 205.02 431.74 206.341 430.562 207.519C429.384 208.696 427.13 209.284 425.527 208.832ZM486.566 164.538C484.162 163.86 483.645 161.878 485.411 160.111C487.178 158.345 490.559 157.462 492.964 158.141C495.368 158.819 495.885 160.8 494.119 162.567C492.352 164.333 488.971 165.216 486.566 164.538ZM410.556 154.036C409.354 153.696 409.095 152.706 409.979 151.822C410.862 150.939 412.552 150.498 413.755 150.837C414.957 151.176 415.215 152.167 414.332 153.05C413.449 153.933 411.758 154.375 410.556 154.036ZM389.084 210.856C385.478 209.839 384.702 206.867 387.352 204.217C390.002 201.567 395.073 200.244 398.68 201.261C402.287 202.278 403.062 205.251 400.413 207.9C397.763 210.55 392.691 211.874 389.084 210.856ZM343.298 215.713C339.691 214.695 338.915 211.723 341.565 209.073C344.215 206.423 349.287 205.1 352.893 206.117C356.5 207.134 357.276 210.107 354.626 212.756C351.976 215.406 346.904 216.73 343.298 215.713ZM332.607 380.824C329 379.806 328.224 376.834 330.874 374.184C333.524 371.534 338.596 370.211 342.202 371.228C345.809 372.245 346.585 375.218 343.935 377.868C341.285 380.517 336.213 381.841 332.607 380.824ZM316.94 372.304C313.333 371.287 312.557 368.315 315.207 365.665C317.857 363.015 322.929 361.692 326.535 362.709C330.142 363.726 330.918 366.699 328.268 369.348C325.618 371.998 320.546 373.322 316.94 372.304ZM319.427 392.142C316.622 391.351 316.019 389.039 318.08 386.978C320.141 384.917 324.086 383.888 326.891 384.679C329.696 385.47 330.299 387.782 328.238 389.843C326.177 391.904 322.233 392.933 319.427 392.142ZM308.455 383.58C306.05 382.902 305.533 380.92 307.299 379.154C309.066 377.387 312.447 376.505 314.852 377.183C317.256 377.861 317.773 379.843 316.007 381.609C314.24 383.376 310.859 384.258 308.455 383.58ZM298.252 377.969C296.649 377.517 296.304 376.196 297.482 375.018C298.659 373.84 300.913 373.252 302.516 373.704C304.119 374.156 304.464 375.477 303.286 376.655C302.109 377.833 299.855 378.421 298.252 377.969ZM337.479 391.766C335.876 391.314 335.531 389.993 336.709 388.815C337.886 387.637 340.14 387.049 341.743 387.501C343.346 387.953 343.691 389.274 342.513 390.452C341.336 391.63 339.082 392.218 337.479 391.766ZM288.686 367.07C285.48 366.166 284.79 363.523 287.146 361.168C289.501 358.812 294.009 357.636 297.215 358.54C300.421 359.444 301.11 362.087 298.755 364.442C296.4 366.797 291.891 367.974 288.686 367.07ZM392.269 385.348C390.666 384.896 390.321 383.575 391.499 382.397C392.676 381.22 394.931 380.631 396.534 381.083C398.136 381.535 398.481 382.857 397.304 384.034C396.126 385.212 393.872 385.8 392.269 385.348ZM371.152 397.162C369.549 396.71 369.205 395.389 370.382 394.211C371.56 393.034 373.814 392.445 375.417 392.897C377.02 393.349 377.365 394.671 376.187 395.848C375.009 397.026 372.755 397.614 371.152 397.162ZM454.434 432.952C451.628 432.161 451.025 429.849 453.086 427.788C455.147 425.727 459.092 424.697 461.897 425.488C464.702 426.28 465.305 428.592 463.244 430.653C461.184 432.714 457.239 433.743 454.434 432.952ZM531.399 402.033C527.993 401.073 527.26 398.265 529.763 395.763C532.265 393.26 537.055 392.01 540.462 392.971C543.868 393.931 544.6 396.739 542.098 399.242C539.595 401.744 534.805 402.994 531.399 402.033ZM512.178 408.231C510.575 407.779 510.23 406.458 511.408 405.28C512.586 404.102 514.84 403.514 516.443 403.966C518.046 404.418 518.39 405.74 517.213 406.917C516.035 408.095 513.781 408.683 512.178 408.231ZM573.876 426.999C572.273 426.547 571.929 425.225 573.106 424.048C574.284 422.87 576.538 422.282 578.141 422.734C579.744 423.186 580.089 424.507 578.911 425.685C577.733 426.862 575.479 427.451 573.876 426.999ZM557.898 399.255C554.292 398.238 553.516 395.266 556.166 392.616C558.815 389.966 563.887 388.642 567.494 389.66C571.101 390.677 571.876 393.65 569.226 396.299C566.577 398.949 561.505 400.273 557.898 399.255ZM546.6 415.205C542.592 414.075 541.73 410.772 544.675 407.828C547.619 404.884 553.254 403.413 557.261 404.543C561.269 405.673 562.131 408.976 559.187 411.921C556.242 414.865 550.607 416.335 546.6 415.205ZM571.611 387.403C568.605 386.556 567.959 384.079 570.167 381.871C572.375 379.662 576.601 378.559 579.607 379.407C582.612 380.255 583.259 382.732 581.051 384.94C578.843 387.148 574.616 388.251 571.611 387.403ZM549.132 437.789C545.525 436.772 544.75 433.8 547.399 431.15C550.049 428.5 555.121 427.177 558.728 428.194C562.334 429.211 563.11 432.184 560.46 434.833C557.81 437.483 552.739 438.807 549.132 437.789ZM366.858 421.922C365.255 421.47 364.91 420.148 366.088 418.971C367.266 417.793 369.52 417.205 371.123 417.657C372.726 418.109 373.071 419.43 371.893 420.608C370.715 421.786 368.461 422.374 366.858 421.922ZM322.182 428.458C320.579 428.006 320.234 426.685 321.412 425.507C322.59 424.329 324.844 423.741 326.447 424.193C328.05 424.645 328.394 425.967 327.217 427.144C326.039 428.322 323.785 428.91 322.182 428.458ZM280.171 398.84C278.568 398.388 278.223 397.067 279.401 395.889C280.579 394.712 282.833 394.123 284.436 394.576C286.039 395.028 286.383 396.349 285.206 397.526C284.028 398.704 281.774 399.292 280.171 398.84ZM677.178 338.581C675.575 338.129 675.23 336.808 676.408 335.63C677.585 334.452 679.84 333.864 681.443 334.316C683.045 334.768 683.39 336.09 682.213 337.267C681.035 338.445 678.781 339.033 677.178 338.581ZM767.211 255.99C766.41 255.764 766.237 255.103 766.826 254.514C767.415 253.925 768.542 253.631 769.344 253.857C770.145 254.083 770.317 254.744 769.729 255.333C769.14 255.921 768.013 256.216 767.211 255.99Z" fill="#99C9FF"/>
<path fill-rule="evenodd" clip-rule="evenodd" d="M417.48 369.905C365.183 355.156 353.936 312.052 392.357 273.631C430.779 235.209 504.32 216.019 556.617 230.768C608.913 245.517 620.161 288.62 581.739 327.042C543.317 365.464 469.776 384.654 417.48 369.905Z" fill="#3385FF"/>
<path fill-rule="evenodd" clip-rule="evenodd" d="M518.99 347.96C518.99 347.96 512.156 329.43 512.192 328.16C520.688 324.251 528.109 319.276 533.849 313.536C539.468 307.917 543.041 302.001 544.447 296.195C547.344 295.33 558.942 292.456 579.242 287.574C578.402 298.734 572.321 310.413 561.422 321.312C550.571 332.163 535.84 341.346 518.99 347.96ZM574.088 266.985C574.088 266.985 543.864 275.837 539.918 276.766C535.861 271.974 529.577 268.249 521.433 265.952C495.585 258.662 459.237 268.147 440.247 287.137C421.257 306.127 426.816 327.431 452.664 334.721C460.578 336.953 469.613 337.657 479.063 336.87C479.671 338.703 481.105 345.535 483.364 357.367C465.113 359.984 447.431 359.216 432.406 354.978C391.33 343.394 382.496 309.539 412.674 279.361C442.852 249.183 500.614 234.11 541.69 245.694C556.826 249.963 567.979 257.39 574.088 266.985Z" fill="white"/>
</g>
</g>
<defs>
<filter id="filter0_dd_6_42" x="-29.9895" y="-13.5061" width="1033.88" height="690.947" filterUnits="userSpaceOnUse" color-interpolation-filters="sRGB">
<feFlood flood-opacity="0" result="BackgroundImageFix"/>
<feColorMatrix in="SourceAlpha" type="matrix" values="0 0 0 0 0 0 0 0 0 0 0 0 0 0 0 0 0 0 127 0" result="hardAlpha"/>
<feOffset dy="16"/>
<feGaussianBlur stdDeviation="32"/>
<feComposite in2="hardAlpha" operator="out"/>
<feColorMatrix type="matrix" values="0 0 0 0 0.0470588 0 0 0 0 0.129412 0 0 0 0 0.25098 0 0 0 0.48 0"/>
<feBlend mode="multiply" in2="BackgroundImageFix" result="effect1_dropShadow_6_42"/>
<feColorMatrix in="SourceAlpha" type="matrix" values="0 0 0 0 0 0 0 0 0 0 0 0 0 0 0 0 0 0 127 0" result="hardAlpha"/>
<feOffset dy="80"/>
<feGaussianBlur stdDeviation="16"/>
<feComposite in2="hardAlpha" operator="out"/>
<feColorMatrix type="matrix" values="0 0 0 0 0.0470588 0 0 0 0 0.129412 0 0 0 0 0.25098 0 0 0 0.24 0"/>
<feBlend mode="multiply" in2="effect1_dropShadow_6_42" result="effect2_dropShadow_6_42"/>
<feBlend mode="normal" in="SourceGraphic" in2="effect2_dropShadow_6_42" result="shape"/>
</filter>
<linearGradient id="paint0_linear_6_42" x1="271.294" y1="542.587" x2="271.294" y2="-3.23407e-05" gradientUnits="userSpaceOnUse">
<stop/>
<stop offset="1" stop-opacity="0"/>
</linearGradient>
<clipPath id="clip0_6_42">
<rect width="386" height="386" fill="white" transform="matrix(0.962455 0.27144 -0.707107 0.707107 437.67 111.108)"/>
</clipPath>
</defs>
</svg>
