<svg width="754" height="120" viewBox="0 0 754 120" fill="none" xmlns="http://www.w3.org/2000/svg">
<path d="M24 69.3127C115.875 69.3127 207.75 69.3127 299.625 69.3127C306.441 69.3127 307.067 68.9405 306.936 75.8926C306.816 82.2544 305.291 88.4245 305.291 94.8099C305.291 97.3019 306.647 95.112 307.667 93.896C315.247 84.8581 323.554 76.8687 332.707 69.4041C354.492 51.6375 378.938 36.0303 406 27.7314C414.079 25.2539 428.159 22.3236 436.706 25.1726C444.552 27.7877 440.179 63.9357 440.179 72.0544C440.179 74.4888 438.576 85.467 440.544 87.0419C442.108 88.2931 477.566 63.0236 480.207 61.4534C500.909 49.1438 573.782 6.92207 577.534 55.696C578.322 65.9391 578.357 76.1402 578.357 86.4022C578.357 96.7299 619.175 72.1478 620.486 71.506C650.204 56.9602 677.274 45.8722 710.412 44.7295C716.933 44.5046 723.48 44.2114 729.694 46.2831" stroke="#699BF7" stroke-width="48" stroke-linecap="round" stroke-linejoin="round"/>
</svg>
